<svg id="visual" viewBox="0 0 900 600" width="900" height="600" xmlns="http://www.w3.org/2000/svg" xmlns:xlink="http://www.w3.org/1999/xlink" version="1.1"><rect x="0" y="0" width="900" height="600" fill="#fff"></rect><path d="M0 565L37.5 566.7C75 568.3 150 571.7 225 572.3C300 573 375 571 450 568.2C525 565.3 600 561.7 675 562C750 562.3 825 566.7 862.5 568.8L900 571L900 601L862.5 601C825 601 750 601 675 601C600 601 525 601 450 601C375 601 300 601 225 601C150 601 75 601 37.5 601L0 601Z" fill="#800080" stroke-linecap="round" stroke-linejoin="miter"></path></svg>