<svg id="visual" viewBox="0 0 900 600" width="900" height="600" xmlns="http://www.w3.org/2000/svg" xmlns:xlink="http://www.w3.org/1999/xlink" version="1.1"><rect x="0" y="0" width="900" height="600" fill="#fff"></rect><defs><linearGradient id="grad1_0" x1="33.3%" y1="100%" x2="100%" y2="0%"><stop offset="20%" stop-color="#ffffff" stop-opacity="1"></stop><stop offset="80%" stop-color="#ffffff" stop-opacity="1"></stop></linearGradient></defs><defs><linearGradient id="grad2_0" x1="0%" y1="100%" x2="66.7%" y2="0%"><stop offset="20%" stop-color="#ffffff" stop-opacity="1"></stop><stop offset="80%" stop-color="#ffffff" stop-opacity="1"></stop></linearGradient></defs><g transform="translate(900, 600)"><path d="M-324.5 0C-313.8 -38.8 -303 -77.5 -290.1 -120.2C-277.2 -162.8 -262.1 -209.3 -229.5 -229.5C-196.9 -249.6 -146.8 -243.5 -105.6 -255C-64.5 -266.4 -32.2 -295.5 0 -324.5L0 0Z" fill="#800080"></path></g><g transform="translate(0, 0)"><path d="M324.5 0C320.4 42.1 316.2 84.2 299.8 124.2C283.3 164.1 254.6 201.9 218.5 218.5C182.4 235.1 139 230.7 101.4 244.8C63.8 259 31.9 291.7 0 324.5L0 0Z" fill="#800080"></path></g></svg>