<svg id="visual" viewBox="0 0 900 600" width="900" height="600" xmlns="http://www.w3.org/2000/svg" xmlns:xlink="http://www.w3.org/1999/xlink" version="1.1"><rect x="0" y="0" width="900" height="600" fill="#fff"></rect><defs><linearGradient id="grad1_0" x1="33.3%" y1="100%" x2="100%" y2="0%"><stop offset="20%" stop-color="#ffffff" stop-opacity="1"></stop><stop offset="80%" stop-color="#ffffff" stop-opacity="1"></stop></linearGradient></defs><defs><linearGradient id="grad2_0" x1="0%" y1="100%" x2="66.7%" y2="0%"><stop offset="20%" stop-color="#ffffff" stop-opacity="1"></stop><stop offset="80%" stop-color="#ffffff" stop-opacity="1"></stop></linearGradient></defs><g transform="translate(900, 600)"><path d="M-243.4 0C-238.8 -45.7 -234.3 -91.4 -210.8 -121.7C-187.3 -151.9 -144.8 -166.8 -106.5 -184.5C-68.2 -202.2 -34.1 -222.8 0 -243.4L0 0Z" fill="#800080"></path></g><g transform="translate(0, 0)"><path d="M243.4 0C219.1 32 194.8 63.9 177.5 102.5C160.3 141.1 150.1 186.2 121.7 210.8C93.3 235.3 46.6 239.4 0 243.4L0 0Z" fill="#800080"></path></g></svg>